<mxfile agent="Mozilla/5.0 (Windows NT 10.0; Win64; x64) AppleWebKit/537.36 (KHTML, like Gecko) draw.io/26.2.2 Chrome/134.0.6998.178 Electron/35.1.2 Safari/537.36" host="Electron" version="26.2.2">
  <diagram id="Ht1M8jgEwFfnCIfOTk4-" name="Page-1">
    <mxGraphModel dx="1659" dy="968" grid="1" gridSize="10" guides="1" tooltips="1" connect="1" arrows="1" fold="1" page="1" pageScale="1" pageWidth="827" pageHeight="1169" math="0" shadow="0">
      <root>
        <mxCell id="0" />
        <mxCell id="1" parent="0" />
        <mxCell id="TyH2EVDcdzDeqwAGiZlq-2" style="edgeStyle=orthogonalEdgeStyle;rounded=1;orthogonalLoop=1;jettySize=auto;html=1;curved=0;flowAnimation=1;" parent="1" source="TyH2EVDcdzDeqwAGiZlq-31" target="TyH2EVDcdzDeqwAGiZlq-7" edge="1">
          <mxGeometry relative="1" as="geometry">
            <mxPoint x="430" y="396.52" as="sourcePoint" />
            <mxPoint x="600.0500000000002" y="129.9988738941138" as="targetPoint" />
            <Array as="points">
              <mxPoint x="510" y="259" />
            </Array>
          </mxGeometry>
        </mxCell>
        <mxCell id="TyH2EVDcdzDeqwAGiZlq-3" value="Amazon API&lt;br&gt;Gateway&lt;br&gt;" style="outlineConnect=0;fontColor=#232F3E;gradientColor=#945DF2;gradientDirection=north;fillColor=#5A30B5;strokeColor=#ffffff;dashed=0;verticalLabelPosition=bottom;verticalAlign=top;align=center;html=1;fontSize=12;fontStyle=0;aspect=fixed;shape=mxgraph.aws4.resourceIcon;resIcon=mxgraph.aws4.api_gateway;labelBackgroundColor=#ffffff;" parent="1" vertex="1">
          <mxGeometry x="484.75" y="530" width="60" height="60" as="geometry" />
        </mxCell>
        <mxCell id="TyH2EVDcdzDeqwAGiZlq-4" style="edgeStyle=orthogonalEdgeStyle;rounded=1;orthogonalLoop=1;jettySize=auto;html=1;curved=0;flowAnimation=1;" parent="1" source="TyH2EVDcdzDeqwAGiZlq-5" target="TyH2EVDcdzDeqwAGiZlq-7" edge="1">
          <mxGeometry relative="1" as="geometry" />
        </mxCell>
        <mxCell id="TyH2EVDcdzDeqwAGiZlq-5" value="Amazon S3" style="outlineConnect=0;fontColor=#232F3E;gradientColor=#60A337;gradientDirection=north;fillColor=#277116;strokeColor=#ffffff;dashed=0;verticalLabelPosition=bottom;verticalAlign=top;align=center;html=1;fontSize=12;fontStyle=0;aspect=fixed;shape=mxgraph.aws4.resourceIcon;resIcon=mxgraph.aws4.s3;labelBackgroundColor=#ffffff;" parent="1" vertex="1">
          <mxGeometry x="284.7500000000002" y="220" width="78" height="78" as="geometry" />
        </mxCell>
        <mxCell id="TyH2EVDcdzDeqwAGiZlq-6" value="Amazon&lt;br&gt;DynamoDB&lt;br&gt;" style="outlineConnect=0;fontColor=#232F3E;gradientColor=#4D72F3;gradientDirection=north;fillColor=#3334B9;strokeColor=#ffffff;dashed=0;verticalLabelPosition=bottom;verticalAlign=top;align=center;html=1;fontSize=12;fontStyle=0;aspect=fixed;shape=mxgraph.aws4.resourceIcon;resIcon=mxgraph.aws4.dynamodb;labelBackgroundColor=#ffffff;spacingTop=5;" parent="1" vertex="1">
          <mxGeometry x="815.7500000000002" y="230" width="78" height="78" as="geometry" />
        </mxCell>
        <mxCell id="TyH2EVDcdzDeqwAGiZlq-7" value="Amazon&lt;br&gt;CloudWatch Logs&lt;br&gt;" style="outlineConnect=0;fontColor=#232F3E;gradientColor=none;gradientDirection=north;fillColor=#F34482;strokeColor=none;dashed=0;verticalLabelPosition=bottom;verticalAlign=top;align=center;html=1;fontSize=12;fontStyle=0;aspect=fixed;shape=mxgraph.aws4.cloudwatch;labelBackgroundColor=#ffffff;" parent="1" vertex="1">
          <mxGeometry x="675.7500000000002" y="220" width="78" height="78" as="geometry" />
        </mxCell>
        <mxCell id="TyH2EVDcdzDeqwAGiZlq-8" style="edgeStyle=orthogonalEdgeStyle;rounded=1;orthogonalLoop=1;jettySize=auto;html=1;curved=0;flowAnimation=1;" parent="1" source="TyH2EVDcdzDeqwAGiZlq-9" target="TyH2EVDcdzDeqwAGiZlq-3" edge="1">
          <mxGeometry relative="1" as="geometry" />
        </mxCell>
        <mxCell id="TyH2EVDcdzDeqwAGiZlq-9" value="Amazon Cloudfront" style="sketch=0;outlineConnect=0;fontColor=#232F3E;gradientColor=none;strokeColor=#ffffff;fillColor=#232F3E;dashed=0;verticalLabelPosition=middle;verticalAlign=bottom;align=center;html=1;whiteSpace=wrap;fontSize=10;fontStyle=1;spacing=3;shape=mxgraph.aws4.productIcon;prIcon=mxgraph.aws4.cloudfront;" parent="1" vertex="1">
          <mxGeometry x="284.75" y="530" width="80" height="110" as="geometry" />
        </mxCell>
        <mxCell id="TyH2EVDcdzDeqwAGiZlq-13" value="AWS Serverless Stack in OCIO Landing Zone" style="rounded=1;whiteSpace=wrap;html=1;" parent="1" vertex="1">
          <mxGeometry x="510" y="10" width="120" height="60" as="geometry" />
        </mxCell>
        <mxCell id="TyH2EVDcdzDeqwAGiZlq-15" value="OCIO AWS Tenancy&lt;div&gt;VPC(Virtual Private Cloud)&lt;/div&gt;" style="outlineConnect=0;dashed=0;verticalLabelPosition=bottom;verticalAlign=top;align=center;html=1;shape=mxgraph.aws3.virtual_private_cloud;fillColor=#F58534;gradientColor=none;" parent="1" vertex="1">
          <mxGeometry x="214.75" y="110" width="79.5" height="54" as="geometry" />
        </mxCell>
        <mxCell id="TyH2EVDcdzDeqwAGiZlq-16" value="" style="endArrow=classic;startArrow=classic;html=1;rounded=1;dashed=1;flowAnimation=1;curved=0;" parent="1" source="TyH2EVDcdzDeqwAGiZlq-9" target="TyH2EVDcdzDeqwAGiZlq-5" edge="1">
          <mxGeometry width="50" height="50" relative="1" as="geometry">
            <mxPoint x="554.75" y="470" as="sourcePoint" />
            <mxPoint x="604.75" y="420" as="targetPoint" />
            <Array as="points">
              <mxPoint x="324.75" y="500" />
            </Array>
          </mxGeometry>
        </mxCell>
        <mxCell id="TyH2EVDcdzDeqwAGiZlq-17" value="Send Log files&lt;div&gt;&lt;br&gt;&lt;/div&gt;" style="text;html=1;align=center;verticalAlign=middle;whiteSpace=wrap;rounded=0;" parent="1" vertex="1">
          <mxGeometry x="464.75" y="230" width="70" height="30" as="geometry" />
        </mxCell>
        <mxCell id="TyH2EVDcdzDeqwAGiZlq-18" value="Store and deliver objects related to the application" style="rounded=1;whiteSpace=wrap;html=1;direction=south;" parent="1" vertex="1">
          <mxGeometry x="240" y="320" width="74.75" height="160" as="geometry" />
        </mxCell>
        <mxCell id="TyH2EVDcdzDeqwAGiZlq-19" style="edgeStyle=orthogonalEdgeStyle;rounded=1;orthogonalLoop=1;jettySize=auto;html=1;curved=0;flowAnimation=1;" parent="1" target="TyH2EVDcdzDeqwAGiZlq-6" edge="1">
          <mxGeometry relative="1" as="geometry">
            <mxPoint x="742.7491128500264" y="559" as="sourcePoint" />
          </mxGeometry>
        </mxCell>
        <mxCell id="QshZub1qNcF5UpLH-L53-3" style="edgeStyle=orthogonalEdgeStyle;rounded=1;orthogonalLoop=1;jettySize=auto;html=1;curved=0;dashed=1;flowAnimation=1;dashPattern=8 8;" parent="1" source="TyH2EVDcdzDeqwAGiZlq-24" target="TyH2EVDcdzDeqwAGiZlq-7" edge="1">
          <mxGeometry relative="1" as="geometry">
            <mxPoint x="590.0000000000002" y="457.52" as="sourcePoint" />
            <mxPoint x="601.0000000000002" y="259.9988738941138" as="targetPoint" />
          </mxGeometry>
        </mxCell>
        <mxCell id="TyH2EVDcdzDeqwAGiZlq-24" value="&lt;div&gt;Serverless/Lambda &lt;br&gt;functions to handle business&lt;br&gt;&amp;nbsp;logic and interface &lt;br&gt;with dynamo db&lt;/div&gt;" style="outlineConnect=0;fontColor=#232F3E;gradientColor=none;fillColor=#D05C17;strokeColor=none;dashed=0;verticalLabelPosition=bottom;verticalAlign=top;align=center;html=1;fontSize=12;fontStyle=0;aspect=fixed;pointerEvents=1;shape=mxgraph.aws4.lambda_function;labelBackgroundColor=#ffffff;" parent="1" vertex="1">
          <mxGeometry x="664.75" y="491" width="78" height="78" as="geometry" />
        </mxCell>
        <mxCell id="TyH2EVDcdzDeqwAGiZlq-25" style="edgeStyle=orthogonalEdgeStyle;rounded=1;orthogonalLoop=1;jettySize=auto;html=1;curved=0;flowAnimation=1;" parent="1" source="TyH2EVDcdzDeqwAGiZlq-3" target="TyH2EVDcdzDeqwAGiZlq-24" edge="1">
          <mxGeometry relative="1" as="geometry">
            <mxPoint x="664.750887149974" y="568.9839999999999" as="targetPoint" />
          </mxGeometry>
        </mxCell>
        <mxCell id="TyH2EVDcdzDeqwAGiZlq-27" value="Serverless Database Stores all the data&lt;br&gt;with automatic scaling and recovery via config" style="rounded=1;whiteSpace=wrap;html=1;direction=south;" parent="1" vertex="1">
          <mxGeometry x="904.75" y="220" width="60" height="150" as="geometry" />
        </mxCell>
        <mxCell id="TyH2EVDcdzDeqwAGiZlq-28" value="" style="points=[];aspect=fixed;html=1;align=center;shadow=0;dashed=0;fillColor=#FF6A00;strokeColor=none;shape=mxgraph.alibaba_cloud.cloud_config;" parent="1" vertex="1">
          <mxGeometry x="364.75" y="290" width="19.75" height="20" as="geometry" />
        </mxCell>
        <mxCell id="TyH2EVDcdzDeqwAGiZlq-29" value="" style="points=[];aspect=fixed;html=1;align=center;shadow=0;dashed=0;fillColor=#FF6A00;strokeColor=none;shape=mxgraph.alibaba_cloud.cloud_config;" parent="1" vertex="1">
          <mxGeometry x="664.75" y="280" width="19.75" height="20" as="geometry" />
        </mxCell>
        <mxCell id="TyH2EVDcdzDeqwAGiZlq-30" value="" style="points=[];aspect=fixed;html=1;align=center;shadow=0;dashed=0;fillColor=#FF6A00;strokeColor=none;shape=mxgraph.alibaba_cloud.cloud_config;" parent="1" vertex="1">
          <mxGeometry x="364.75" y="549" width="19.75" height="20" as="geometry" />
        </mxCell>
        <mxCell id="TyH2EVDcdzDeqwAGiZlq-31" value="" style="points=[];aspect=fixed;html=1;align=center;shadow=0;dashed=0;fillColor=#FF6A00;strokeColor=none;shape=mxgraph.alibaba_cloud.cloud_config;" parent="1" vertex="1">
          <mxGeometry x="460" y="529" width="19.75" height="20" as="geometry" />
        </mxCell>
        <mxCell id="TyH2EVDcdzDeqwAGiZlq-32" value="" style="points=[];aspect=fixed;html=1;align=center;shadow=0;dashed=0;fillColor=#FF6A00;strokeColor=none;shape=mxgraph.alibaba_cloud.cloud_config;" parent="1" vertex="1">
          <mxGeometry x="940" y="20" width="39.5" height="40" as="geometry" />
        </mxCell>
        <mxCell id="TyH2EVDcdzDeqwAGiZlq-33" value="" style="points=[];aspect=fixed;html=1;align=center;shadow=0;dashed=0;fillColor=default;strokeColor=none;shape=mxgraph.alibaba_cloud.cloud_config;" parent="1" vertex="1">
          <mxGeometry x="1060" y="20" width="19.75" height="20" as="geometry" />
        </mxCell>
        <mxCell id="TyH2EVDcdzDeqwAGiZlq-34" value="" style="points=[];aspect=fixed;html=1;align=center;shadow=0;dashed=0;fillColor=#FF6A00;strokeColor=none;shape=mxgraph.alibaba_cloud.cloud_config;" parent="1" vertex="1">
          <mxGeometry x="814.75" y="210" width="19.75" height="20" as="geometry" />
        </mxCell>
        <mxCell id="TyH2EVDcdzDeqwAGiZlq-35" value="Configuration&lt;div&gt;&lt;br&gt;&lt;/div&gt;" style="text;html=1;align=center;verticalAlign=middle;resizable=0;points=[];autosize=1;strokeColor=none;fillColor=none;" parent="1" vertex="1">
          <mxGeometry x="990" y="20" width="90" height="40" as="geometry" />
        </mxCell>
        <mxCell id="TyH2EVDcdzDeqwAGiZlq-36" value="" style="sketch=0;outlineConnect=0;fontColor=#232F3E;gradientColor=none;fillColor=#232F3D;strokeColor=none;dashed=0;verticalLabelPosition=bottom;verticalAlign=top;align=center;html=1;fontSize=12;fontStyle=0;aspect=fixed;pointerEvents=1;shape=mxgraph.aws4.source_code;" parent="1" vertex="1">
          <mxGeometry x="940" y="80" width="40" height="54.72" as="geometry" />
        </mxCell>
        <mxCell id="TyH2EVDcdzDeqwAGiZlq-37" value="Custom Code" style="text;html=1;align=center;verticalAlign=middle;resizable=0;points=[];autosize=1;strokeColor=none;fillColor=none;" parent="1" vertex="1">
          <mxGeometry x="985" y="97.47999999999999" width="100" height="30" as="geometry" />
        </mxCell>
        <mxCell id="TyH2EVDcdzDeqwAGiZlq-39" value="" style="sketch=0;outlineConnect=0;fontColor=#232F3E;gradientColor=none;fillColor=#232F3D;strokeColor=none;dashed=0;verticalLabelPosition=bottom;verticalAlign=top;align=center;html=1;fontSize=12;fontStyle=0;aspect=fixed;pointerEvents=1;shape=mxgraph.aws4.source_code;" parent="1" vertex="1">
          <mxGeometry x="742.75" y="491" width="14.61" height="20" as="geometry" />
        </mxCell>
        <mxCell id="TyH2EVDcdzDeqwAGiZlq-41" value="" style="points=[];aspect=fixed;html=1;align=center;shadow=0;dashed=0;fillColor=#FF6A00;strokeColor=none;shape=mxgraph.alibaba_cloud.cloud_config;" parent="1" vertex="1">
          <mxGeometry x="640" y="491" width="19.75" height="20" as="geometry" />
        </mxCell>
        <mxCell id="TyH2EVDcdzDeqwAGiZlq-44" value="" style="sketch=0;outlineConnect=0;fontColor=#232F3E;gradientColor=none;fillColor=#232F3D;strokeColor=none;dashed=0;verticalLabelPosition=bottom;verticalAlign=top;align=center;html=1;fontSize=12;fontStyle=0;aspect=fixed;pointerEvents=1;shape=mxgraph.aws4.source_code;" parent="1" vertex="1">
          <mxGeometry x="250" y="330" width="14.61" height="20" as="geometry" />
        </mxCell>
        <mxCell id="TyH2EVDcdzDeqwAGiZlq-45" style="edgeStyle=orthogonalEdgeStyle;rounded=1;orthogonalLoop=1;jettySize=auto;html=1;curved=0;flowAnimation=1;" parent="1" source="TyH2EVDcdzDeqwAGiZlq-46" target="TyH2EVDcdzDeqwAGiZlq-9" edge="1">
          <mxGeometry relative="1" as="geometry" />
        </mxCell>
        <mxCell id="TyH2EVDcdzDeqwAGiZlq-46" value="End Users &lt;br&gt;Device &lt;br&gt;Mobile or&lt;br&gt;&amp;nbsp;Desktop&lt;div&gt;&lt;br&gt;&lt;/div&gt;" style="sketch=0;pointerEvents=1;shadow=0;dashed=0;html=1;strokeColor=none;labelPosition=center;verticalLabelPosition=bottom;verticalAlign=top;align=center;fillColor=#505050;shape=mxgraph.mscae.intune.device_os" parent="1" vertex="1">
          <mxGeometry x="110" y="534" width="49" height="50" as="geometry" />
        </mxCell>
        <mxCell id="TyH2EVDcdzDeqwAGiZlq-47" style="edgeStyle=orthogonalEdgeStyle;rounded=1;orthogonalLoop=1;jettySize=auto;html=1;curved=0;flowAnimation=1;" parent="1" source="TyH2EVDcdzDeqwAGiZlq-48" target="TyH2EVDcdzDeqwAGiZlq-3" edge="1">
          <mxGeometry relative="1" as="geometry" />
        </mxCell>
        <mxCell id="TyH2EVDcdzDeqwAGiZlq-48" value="External &lt;br&gt;Systems&lt;br&gt;&amp;nbsp;" style="aspect=fixed;sketch=0;html=1;dashed=0;whitespace=wrap;verticalLabelPosition=bottom;verticalAlign=top;fillColor=#2875E2;strokeColor=#ffffff;points=[[0.005,0.63,0],[0.1,0.2,0],[0.9,0.2,0],[0.5,0,0],[0.995,0.63,0],[0.72,0.99,0],[0.5,1,0],[0.28,0.99,0]];shape=mxgraph.kubernetes.icon2;prIcon=api" parent="1" vertex="1">
          <mxGeometry x="100" y="710" width="50" height="48" as="geometry" />
        </mxCell>
        <mxCell id="TyH2EVDcdzDeqwAGiZlq-49" value="Secured HTTPS Communication over APIs&lt;br&gt;To Directly Submit Data" style="text;html=1;align=center;verticalAlign=middle;resizable=0;points=[];autosize=1;strokeColor=none;fillColor=none;" parent="1" vertex="1">
          <mxGeometry x="185" y="733" width="250" height="40" as="geometry" />
        </mxCell>
        <mxCell id="iqVS-i7Tr_P_ZZN_IRMO-5" style="edgeStyle=orthogonalEdgeStyle;rounded=1;orthogonalLoop=1;jettySize=auto;html=1;curved=0;flowAnimation=1;" parent="1" source="iqVS-i7Tr_P_ZZN_IRMO-4" target="TyH2EVDcdzDeqwAGiZlq-3" edge="1">
          <mxGeometry relative="1" as="geometry">
            <mxPoint x="510" y="600" as="targetPoint" />
          </mxGeometry>
        </mxCell>
        <mxCell id="iqVS-i7Tr_P_ZZN_IRMO-4" value="PowerBI Service for Reporting&lt;div&gt;Outside of AWS VPC&lt;/div&gt;" style="image;aspect=fixed;html=1;points=[];align=center;fontSize=12;image=img/lib/azure2/power_platform/PowerBI.svg;" parent="1" vertex="1">
          <mxGeometry x="1270" y="450" width="51" height="68" as="geometry" />
        </mxCell>
        <mxCell id="iqVS-i7Tr_P_ZZN_IRMO-8" value="&lt;div&gt;Store log files for debugging / auditing purposes&lt;/div&gt;" style="text;html=1;align=center;verticalAlign=middle;whiteSpace=wrap;rounded=0;" parent="1" vertex="1">
          <mxGeometry x="640" y="150" width="125.38" height="80" as="geometry" />
        </mxCell>
        <mxCell id="3P6TWMXsu6xihYdQiI5A-7" value="End Users submit their data through UI(Custom Code), delivered by CloudFront to their device or directly through API Gateway&lt;div&gt;&lt;br&gt;&lt;/div&gt;&lt;div&gt;Data Validation happens at the API gateway backed by validation lambda(single source of truth, custom code), both synchronous/real time and offline batch uploads.&lt;/div&gt;&lt;div&gt;&lt;br&gt;&lt;/div&gt;&lt;div&gt;Data Processing for clean data occurs based on the calculation stored in DB which is managed by Admins and updated as per need.&lt;/div&gt;&lt;div&gt;&lt;br&gt;&lt;/div&gt;&lt;div&gt;External Service(Power BI integrates with Application via APIs to solve reporting needs)&lt;/div&gt;&lt;div&gt;&lt;br&gt;&lt;/div&gt;&lt;div&gt;All the custom code is stored in BCGov GitHub, Open Source code base for versioning collaboration with CI/CD pipelines&lt;/div&gt;" style="shape=note;whiteSpace=wrap;html=1;backgroundOutline=1;darkOpacity=0.05;align=left;fillColor=#d5e8d4;strokeColor=#82b366;" parent="1" vertex="1">
          <mxGeometry x="884.88" y="660" width="495.12" height="240" as="geometry" />
        </mxCell>
      </root>
    </mxGraphModel>
  </diagram>
</mxfile>
